# xmcd
#
# Track frame offsets:
#	180
#	17949
#	33824
#	47660
#	62672
#	80220
#	97978
#	110125
#	127740
#	147460
#	161923
#	175856
#	194982
#	207252
#	222174
#
# Disc length: 3193 seconds
#
# Revision: 1
# Processed by: cddbd v1.5.1PL2 Copyright (c) Steve Scherf et al.
# Submitted via: audiograbber 1.83.01
#
DISCID=e00c770f
DTITLE=Sound Choice - SC8112
DYEAR=1900
DGENRE=Karaoke Country
TTITLE0=Brooks and Dunn - Rock My World Little Country Girl
TTITLE1=Chestnutt, Mark - I Just Wanted You To Know
TTITLE2=Mcgraw, Tim - Indian Outlaw
TTITLE3=Loveless, Patty - You Will
TTITLE4=Bogguss, Suzy - Hey Cinderella
TTITLE5=Gill, Vince - Trying To Get Over You
TTITLE6=Parton, Dolly - Why'D Ya' Come In Here Lookin' Like That
TTITLE7=Whitley, Keith - When You Say Nothing At All
TTITLE8=Alabama - Mountaiin Music
TTITLE9=Judds - Girls Night Out
TTITLE10=Tritt, Travis - T R O U B L E
TTITLE11=Wright, Michelle - Take It Like A Man
TTITLE12=Ledoux, Chris - Everytime I Roll The Dice
TTITLE13=Tillis, Pam - Don'T Tell Me What To Do
TTITLE14=Jackson, Alan - Who Says You Can'T Have It All
EXTD=
EXTT0=
EXTT1=
EXTT2=
EXTT3=
EXTT4=
EXTT5=
EXTT6=
EXTT7=
EXTT8=
EXTT9=
EXTT10=
EXTT11=
EXTT12=
EXTT13=
EXTT14=
PLAYORDER=
